<svg width="32" height="28" viewBox="0 0 32 28" fill="none" xmlns="http://www.w3.org/2000/svg">
<path d="M10.6667 20.6666L16 25.9999M16 25.9999L21.3334 20.6666M16 25.9999L16 13.9999M27.84 22.1199C28.9992 21.3048 29.8685 20.1414 30.3217 18.7988C30.775 17.4561 30.7886 16.0039 30.3606 14.653C29.9325 13.3021 29.0852 12.1227 27.9415 11.286C26.7977 10.4493 25.4171 9.9988 24 9.99991H22.32C21.919 8.43707 21.1687 6.98557 20.1255 5.75468C19.0824 4.52379 17.7736 3.54559 16.2976 2.89372C14.8217 2.24184 13.2172 1.93328 11.6047 1.99127C9.99231 2.04925 8.41405 2.47227 6.98877 3.22848C5.56349 3.98469 4.32833 5.05438 3.37628 6.35702C2.42423 7.65966 1.7801 9.16131 1.49238 10.7489C1.20466 12.3365 1.28085 13.9687 1.71521 15.5226C2.14957 17.0765 2.93078 18.5116 4.00003 19.7199" stroke="#162A47" stroke-width="3" stroke-linecap="round" stroke-linejoin="round"/>
</svg>
