<svg width="32" height="32" viewBox="0 0 32 32" fill="none" xmlns="http://www.w3.org/2000/svg">
    <path d="M13.3334 17.3335C13.906 18.099 14.6365 18.7324 15.4754 19.1907C16.3143 19.649 17.242 19.9216 18.1956 19.9899C19.1491 20.0582 20.1061 19.9206 21.0018 19.5865C21.8975 19.2524 22.7108 18.7295 23.3867 18.0535L27.3867 14.0535C28.6011 12.7961 29.273 11.1121 29.2579 9.36411C29.2427 7.61613 28.5415 5.94405 27.3055 4.70799C26.0694 3.47194 24.3973 2.77081 22.6494 2.75562C20.9014 2.74043 19.2174 3.4124 17.96 4.62678L15.6667 6.90678M18.6667 14.6668C18.0941 13.9013 17.3635 13.2679 16.5246 12.8095C15.6857 12.3512 14.758 12.0786 13.8045 12.0103C12.851 11.942 11.8939 12.0796 10.9982 12.4137C10.1025 12.7479 9.2892 13.2707 8.61336 13.9468L4.61336 17.9468C3.39897 19.2041 2.72701 20.8881 2.7422 22.6361C2.75738 24.3841 3.45851 26.0562 4.69457 27.2922C5.93062 28.5283 7.6027 29.2294 9.35068 29.2446C11.0987 29.2598 12.7827 28.5878 14.04 27.3735L16.32 25.0935" stroke="#F37021" stroke-width="3" stroke-linecap="round" stroke-linejoin="round"/>
</svg>
