<svg width="32" height="32" viewBox="0 0 32 32" fill="none" xmlns="http://www.w3.org/2000/svg">
    <path d="M18.6667 14.6668C18.0941 13.9013 17.3635 13.2679 16.5246 12.8095C15.6857 12.3512 14.758 12.0786 13.8045 12.0103C12.851 11.942 11.8939 12.0796 10.9982 12.4137C10.1025 12.7479 9.2892 13.2707 8.61336 13.9468L4.61336 17.9468C3.39897 19.2041 2.72701 20.8881 2.7422 22.6361C2.75738 24.3841 3.45851 26.0562 4.69457 27.2922C5.93062 28.5283 7.6027 29.2294 9.35068 29.2446C11.0987 29.2598 12.7827 28.5878 14.04 27.3735L16.32 25.0935M20 10L21.8333 8.16678C23.1605 6.83965 25.4171 6.83965 26.7442 8.16678C28.0713 9.49391 28.0713 11.7505 26.7442 13.0777L23.3867 16.4351C22.7108 17.1111 21.8975 17.634 21.0018 17.9681C20.1061 18.3022 19.1491 18.4398 18.1956 18.3715C17.242 18.3032 16.3143 18.0306 15.4754 17.5723C14.6365 17.114 13.906 16.4806 13.3334 15.7151" stroke="#F37021" stroke-width="3" stroke-linecap="round" stroke-linejoin="round"/>
</svg>